<?xml version="1.0" encoding="utf-8"?>
<svg xmlns="http://www.w3.org/2000/svg" xmlns:xlink="http://www.w3.org/1999/xlink" width="600" height="400" viewBox="0 0 2400 1600">
<defs>
  <clipPath id="clip110">
    <rect x="0" y="0" width="2400" height="1600"/>
  </clipPath>
</defs>
<path clip-path="url(#clip110)" d="M0 1600 L2400 1600 L2400 0 L0 0  Z" fill="#ffffff" fill-rule="evenodd" fill-opacity="1"/>
<defs>
  <clipPath id="clip111">
    <rect x="480" y="0" width="1681" height="1600"/>
  </clipPath>
</defs>
<path clip-path="url(#clip110)" d="M247.459 1352.28 L2352.76 1352.28 L2352.76 194.369 L247.459 194.369  Z" fill="#ffffff" fill-rule="evenodd" fill-opacity="1"/>
<defs>
  <clipPath id="clip112">
    <rect x="247" y="194" width="2106" height="1159"/>
  </clipPath>
</defs>
<polyline clip-path="url(#clip112)" style="stroke:#000000; stroke-linecap:round; stroke-linejoin:round; stroke-width:2; stroke-opacity:0.1; fill:none" points="247.459,1352.28 247.459,194.369 "/>
<polyline clip-path="url(#clip112)" style="stroke:#000000; stroke-linecap:round; stroke-linejoin:round; stroke-width:2; stroke-opacity:0.1; fill:none" points="773.783,1352.28 773.783,194.369 "/>
<polyline clip-path="url(#clip112)" style="stroke:#000000; stroke-linecap:round; stroke-linejoin:round; stroke-width:2; stroke-opacity:0.1; fill:none" points="1300.11,1352.28 1300.11,194.369 "/>
<polyline clip-path="url(#clip112)" style="stroke:#000000; stroke-linecap:round; stroke-linejoin:round; stroke-width:2; stroke-opacity:0.1; fill:none" points="1826.43,1352.28 1826.43,194.369 "/>
<polyline clip-path="url(#clip112)" style="stroke:#000000; stroke-linecap:round; stroke-linejoin:round; stroke-width:2; stroke-opacity:0.1; fill:none" points="2352.76,1352.28 2352.76,194.369 "/>
<polyline clip-path="url(#clip110)" style="stroke:#000000; stroke-linecap:round; stroke-linejoin:round; stroke-width:4; stroke-opacity:1; fill:none" points="247.459,1352.28 2352.76,1352.28 "/>
<polyline clip-path="url(#clip110)" style="stroke:#000000; stroke-linecap:round; stroke-linejoin:round; stroke-width:4; stroke-opacity:1; fill:none" points="247.459,1352.28 247.459,1335.45 "/>
<polyline clip-path="url(#clip110)" style="stroke:#000000; stroke-linecap:round; stroke-linejoin:round; stroke-width:4; stroke-opacity:1; fill:none" points="773.783,1352.28 773.783,1335.45 "/>
<polyline clip-path="url(#clip110)" style="stroke:#000000; stroke-linecap:round; stroke-linejoin:round; stroke-width:4; stroke-opacity:1; fill:none" points="1300.11,1352.28 1300.11,1335.45 "/>
<polyline clip-path="url(#clip110)" style="stroke:#000000; stroke-linecap:round; stroke-linejoin:round; stroke-width:4; stroke-opacity:1; fill:none" points="1826.43,1352.28 1826.43,1335.45 "/>
<polyline clip-path="url(#clip110)" style="stroke:#000000; stroke-linecap:round; stroke-linejoin:round; stroke-width:4; stroke-opacity:1; fill:none" points="2352.76,1352.28 2352.76,1335.45 "/>
<path clip-path="url(#clip110)" d="M201.521 1397.85 L231.197 1397.85 L231.197 1401.79 L201.521 1401.79 L201.521 1397.85 Z" fill="#000000" fill-rule="nonzero" fill-opacity="1" /><path clip-path="url(#clip110)" d="M242.1 1410.75 L249.739 1410.75 L249.739 1384.38 L241.429 1386.05 L241.429 1381.79 L249.692 1380.12 L254.368 1380.12 L254.368 1410.75 L262.007 1410.75 L262.007 1414.68 L242.1 1414.68 L242.1 1410.75 Z" fill="#000000" fill-rule="nonzero" fill-opacity="1" /><path clip-path="url(#clip110)" d="M281.452 1383.2 Q277.84 1383.2 276.012 1386.77 Q274.206 1390.31 274.206 1397.44 Q274.206 1404.54 276.012 1408.11 Q277.84 1411.65 281.452 1411.65 Q285.086 1411.65 286.891 1408.11 Q288.72 1404.54 288.72 1397.44 Q288.72 1390.31 286.891 1386.77 Q285.086 1383.2 281.452 1383.2 M281.452 1379.5 Q287.262 1379.5 290.317 1384.1 Q293.396 1388.69 293.396 1397.44 Q293.396 1406.16 290.317 1410.77 Q287.262 1415.35 281.452 1415.35 Q275.641 1415.35 272.563 1410.77 Q269.507 1406.16 269.507 1397.44 Q269.507 1388.69 272.563 1384.1 Q275.641 1379.5 281.452 1379.5 Z" fill="#000000" fill-rule="nonzero" fill-opacity="1" /><path clip-path="url(#clip110)" d="M743.424 1397.85 L773.1 1397.85 L773.1 1401.79 L743.424 1401.79 L743.424 1397.85 Z" fill="#000000" fill-rule="nonzero" fill-opacity="1" /><path clip-path="url(#clip110)" d="M783.239 1380.12 L801.595 1380.12 L801.595 1384.06 L787.521 1384.06 L787.521 1392.53 Q788.54 1392.18 789.558 1392.02 Q790.577 1391.84 791.595 1391.84 Q797.382 1391.84 800.762 1395.01 Q804.142 1398.18 804.142 1403.59 Q804.142 1409.17 800.669 1412.28 Q797.197 1415.35 790.878 1415.35 Q788.702 1415.35 786.433 1414.98 Q784.188 1414.61 781.781 1413.87 L781.781 1409.17 Q783.864 1410.31 786.086 1410.86 Q788.308 1411.42 790.785 1411.42 Q794.79 1411.42 797.128 1409.31 Q799.466 1407.21 799.466 1403.59 Q799.466 1399.98 797.128 1397.88 Q794.79 1395.77 790.785 1395.77 Q788.91 1395.77 787.035 1396.19 Q785.183 1396.6 783.239 1397.48 L783.239 1380.12 Z" fill="#000000" fill-rule="nonzero" fill-opacity="1" /><path clip-path="url(#clip110)" d="M1300.11 1383.2 Q1296.5 1383.2 1294.67 1386.77 Q1292.86 1390.31 1292.86 1397.44 Q1292.86 1404.54 1294.67 1408.11 Q1296.5 1411.65 1300.11 1411.65 Q1303.74 1411.65 1305.55 1408.11 Q1307.38 1404.54 1307.38 1397.44 Q1307.38 1390.31 1305.55 1386.77 Q1303.74 1383.2 1300.11 1383.2 M1300.11 1379.5 Q1305.92 1379.5 1308.97 1384.1 Q1312.05 1388.69 1312.05 1397.44 Q1312.05 1406.16 1308.97 1410.77 Q1305.92 1415.35 1300.11 1415.35 Q1294.3 1415.35 1291.22 1410.77 Q1288.16 1406.16 1288.16 1397.44 Q1288.16 1388.69 1291.22 1384.1 Q1294.3 1379.5 1300.11 1379.5 Z" fill="#000000" fill-rule="nonzero" fill-opacity="1" /><path clip-path="url(#clip110)" d="M1816.71 1380.12 L1835.07 1380.12 L1835.07 1384.06 L1820.99 1384.06 L1820.99 1392.53 Q1822.01 1392.18 1823.03 1392.02 Q1824.05 1391.84 1825.07 1391.84 Q1830.85 1391.84 1834.23 1395.01 Q1837.61 1398.18 1837.61 1403.59 Q1837.61 1409.17 1834.14 1412.28 Q1830.67 1415.35 1824.35 1415.35 Q1822.17 1415.35 1819.9 1414.98 Q1817.66 1414.61 1815.25 1413.87 L1815.25 1409.17 Q1817.33 1410.31 1819.56 1410.86 Q1821.78 1411.42 1824.26 1411.42 Q1828.26 1411.42 1830.6 1409.31 Q1832.94 1407.21 1832.94 1403.59 Q1832.94 1399.98 1830.6 1397.88 Q1828.26 1395.77 1824.26 1395.77 Q1822.38 1395.77 1820.51 1396.19 Q1818.65 1396.6 1816.71 1397.48 L1816.71 1380.12 Z" fill="#000000" fill-rule="nonzero" fill-opacity="1" /><path clip-path="url(#clip110)" d="M2327.44 1410.75 L2335.08 1410.75 L2335.08 1384.38 L2326.77 1386.05 L2326.77 1381.79 L2335.04 1380.12 L2339.71 1380.12 L2339.71 1410.75 L2347.35 1410.75 L2347.35 1414.68 L2327.44 1414.68 L2327.44 1410.75 Z" fill="#000000" fill-rule="nonzero" fill-opacity="1" /><path clip-path="url(#clip110)" d="M2366.8 1383.2 Q2363.18 1383.2 2361.36 1386.77 Q2359.55 1390.31 2359.55 1397.44 Q2359.55 1404.54 2361.36 1408.11 Q2363.18 1411.65 2366.8 1411.65 Q2370.43 1411.65 2372.23 1408.11 Q2374.06 1404.54 2374.06 1397.44 Q2374.06 1390.31 2372.23 1386.77 Q2370.43 1383.2 2366.8 1383.2 M2366.8 1379.5 Q2372.61 1379.5 2375.66 1384.1 Q2378.74 1388.69 2378.74 1397.44 Q2378.74 1406.16 2375.66 1410.77 Q2372.61 1415.35 2366.8 1415.35 Q2360.99 1415.35 2357.91 1410.77 Q2354.85 1406.16 2354.85 1397.44 Q2354.85 1388.69 2357.91 1384.1 Q2360.99 1379.5 2366.8 1379.5 Z" fill="#000000" fill-rule="nonzero" fill-opacity="1" /><path clip-path="url(#clip110)" d="M1250.92 1461.5 L1238.03 1478.85 L1251.58 1497.15 L1244.68 1497.15 L1234.3 1483.14 L1223.93 1497.15 L1217.02 1497.15 L1230.86 1478.5 L1218.2 1461.5 L1225.1 1461.5 L1234.56 1474.2 L1244.01 1461.5 L1250.92 1461.5 Z" fill="#000000" fill-rule="nonzero" fill-opacity="1" /><path clip-path="url(#clip110)" d="M1294.65 1447.69 Q1290.38 1455.01 1288.31 1462.17 Q1286.25 1469.33 1286.25 1476.68 Q1286.25 1484.03 1288.31 1491.26 Q1290.42 1498.45 1294.65 1505.74 L1289.56 1505.74 Q1284.78 1498.26 1282.39 1491.04 Q1280.04 1483.81 1280.04 1476.68 Q1280.04 1469.58 1282.39 1462.39 Q1284.75 1455.2 1289.56 1447.69 L1294.65 1447.69 Z" fill="#000000" fill-rule="nonzero" fill-opacity="1" /><path clip-path="url(#clip110)" d="M1333.77 1468.34 Q1335.96 1464.4 1339.02 1462.52 Q1342.07 1460.64 1346.21 1460.64 Q1351.78 1460.64 1354.8 1464.55 Q1357.83 1468.44 1357.83 1475.63 L1357.83 1497.15 L1351.94 1497.15 L1351.94 1475.82 Q1351.94 1470.7 1350.13 1468.21 Q1348.31 1465.73 1344.59 1465.73 Q1340.04 1465.73 1337.39 1468.76 Q1334.75 1471.78 1334.75 1477 L1334.75 1497.15 L1328.86 1497.15 L1328.86 1475.82 Q1328.86 1470.67 1327.05 1468.21 Q1325.24 1465.73 1321.45 1465.73 Q1316.96 1465.73 1314.32 1468.79 Q1311.68 1471.81 1311.68 1477 L1311.68 1497.15 L1305.79 1497.15 L1305.79 1461.5 L1311.68 1461.5 L1311.68 1467.04 Q1313.68 1463.76 1316.48 1462.2 Q1319.28 1460.64 1323.14 1460.64 Q1327.02 1460.64 1329.72 1462.61 Q1332.46 1464.59 1333.77 1468.34 Z" fill="#000000" fill-rule="nonzero" fill-opacity="1" /><path clip-path="url(#clip110)" d="M1368.59 1447.69 L1373.68 1447.69 Q1378.45 1455.2 1380.81 1462.39 Q1383.2 1469.58 1383.2 1476.68 Q1383.2 1483.81 1380.81 1491.04 Q1378.45 1498.26 1373.68 1505.74 L1368.59 1505.74 Q1372.82 1498.45 1374.89 1491.26 Q1376.99 1484.03 1376.99 1476.68 Q1376.99 1469.33 1374.89 1462.17 Q1372.82 1455.01 1368.59 1447.69 Z" fill="#000000" fill-rule="nonzero" fill-opacity="1" /><polyline clip-path="url(#clip112)" style="stroke:#000000; stroke-linecap:round; stroke-linejoin:round; stroke-width:2; stroke-opacity:0.1; fill:none" points="247.459,1141.75 2352.76,1141.75 "/>
<polyline clip-path="url(#clip112)" style="stroke:#000000; stroke-linecap:round; stroke-linejoin:round; stroke-width:2; stroke-opacity:0.1; fill:none" points="247.459,878.591 2352.76,878.591 "/>
<polyline clip-path="url(#clip112)" style="stroke:#000000; stroke-linecap:round; stroke-linejoin:round; stroke-width:2; stroke-opacity:0.1; fill:none" points="247.459,615.429 2352.76,615.429 "/>
<polyline clip-path="url(#clip112)" style="stroke:#000000; stroke-linecap:round; stroke-linejoin:round; stroke-width:2; stroke-opacity:0.1; fill:none" points="247.459,352.267 2352.76,352.267 "/>
<polyline clip-path="url(#clip110)" style="stroke:#000000; stroke-linecap:round; stroke-linejoin:round; stroke-width:4; stroke-opacity:1; fill:none" points="247.459,1352.28 247.459,194.369 "/>
<polyline clip-path="url(#clip110)" style="stroke:#000000; stroke-linecap:round; stroke-linejoin:round; stroke-width:4; stroke-opacity:1; fill:none" points="247.459,1141.75 266.356,1141.75 "/>
<polyline clip-path="url(#clip110)" style="stroke:#000000; stroke-linecap:round; stroke-linejoin:round; stroke-width:4; stroke-opacity:1; fill:none" points="247.459,878.591 266.356,878.591 "/>
<polyline clip-path="url(#clip110)" style="stroke:#000000; stroke-linecap:round; stroke-linejoin:round; stroke-width:4; stroke-opacity:1; fill:none" points="247.459,615.429 266.356,615.429 "/>
<polyline clip-path="url(#clip110)" style="stroke:#000000; stroke-linecap:round; stroke-linejoin:round; stroke-width:4; stroke-opacity:1; fill:none" points="247.459,352.267 266.356,352.267 "/>
<path clip-path="url(#clip110)" d="M144.329 1124.47 L162.686 1124.47 L162.686 1128.41 L148.612 1128.41 L148.612 1136.88 Q149.63 1136.53 150.649 1136.37 Q151.667 1136.19 152.686 1136.19 Q158.473 1136.19 161.852 1139.36 Q165.232 1142.53 165.232 1147.95 Q165.232 1153.52 161.76 1156.63 Q158.288 1159.7 151.968 1159.7 Q149.792 1159.7 147.524 1159.33 Q145.279 1158.96 142.871 1158.22 L142.871 1153.52 Q144.954 1154.66 147.177 1155.21 Q149.399 1155.77 151.876 1155.77 Q155.88 1155.77 158.218 1153.66 Q160.556 1151.56 160.556 1147.95 Q160.556 1144.33 158.218 1142.23 Q155.88 1140.12 151.876 1140.12 Q150.001 1140.12 148.126 1140.54 Q146.274 1140.95 144.329 1141.83 L144.329 1124.47 Z" fill="#000000" fill-rule="nonzero" fill-opacity="1" /><path clip-path="url(#clip110)" d="M174.445 1153.15 L179.329 1153.15 L179.329 1159.03 L174.445 1159.03 L174.445 1153.15 Z" fill="#000000" fill-rule="nonzero" fill-opacity="1" /><path clip-path="url(#clip110)" d="M199.514 1127.55 Q195.903 1127.55 194.075 1131.12 Q192.269 1134.66 192.269 1141.79 Q192.269 1148.89 194.075 1152.46 Q195.903 1156 199.514 1156 Q203.149 1156 204.954 1152.46 Q206.783 1148.89 206.783 1141.79 Q206.783 1134.66 204.954 1131.12 Q203.149 1127.55 199.514 1127.55 M199.514 1123.85 Q205.324 1123.85 208.38 1128.45 Q211.459 1133.04 211.459 1141.79 Q211.459 1150.51 208.38 1155.12 Q205.324 1159.7 199.514 1159.7 Q193.704 1159.7 190.625 1155.12 Q187.57 1150.51 187.57 1141.79 Q187.57 1133.04 190.625 1128.45 Q193.704 1123.85 199.514 1123.85 Z" fill="#000000" fill-rule="nonzero" fill-opacity="1" /><path clip-path="url(#clip110)" d="M144.098 861.311 L166.32 861.311 L166.32 863.302 L153.774 895.871 L148.89 895.871 L160.695 865.246 L144.098 865.246 L144.098 861.311 Z" fill="#000000" fill-rule="nonzero" fill-opacity="1" /><path clip-path="url(#clip110)" d="M175.44 889.991 L180.325 889.991 L180.325 895.871 L175.44 895.871 L175.44 889.991 Z" fill="#000000" fill-rule="nonzero" fill-opacity="1" /><path clip-path="url(#clip110)" d="M190.556 861.311 L208.912 861.311 L208.912 865.246 L194.838 865.246 L194.838 873.718 Q195.857 873.371 196.875 873.209 Q197.894 873.024 198.912 873.024 Q204.699 873.024 208.079 876.195 Q211.459 879.366 211.459 884.783 Q211.459 890.362 207.987 893.463 Q204.514 896.542 198.195 896.542 Q196.019 896.542 193.75 896.172 Q191.505 895.801 189.098 895.061 L189.098 890.362 Q191.181 891.496 193.403 892.051 Q195.625 892.607 198.102 892.607 Q202.107 892.607 204.445 890.501 Q206.783 888.394 206.783 884.783 Q206.783 881.172 204.445 879.065 Q202.107 876.959 198.102 876.959 Q196.227 876.959 194.352 877.376 Q192.5 877.792 190.556 878.672 L190.556 861.311 Z" fill="#000000" fill-rule="nonzero" fill-opacity="1" /><path clip-path="url(#clip110)" d="M114.931 628.774 L122.57 628.774 L122.57 602.408 L114.26 604.075 L114.26 599.815 L122.524 598.149 L127.2 598.149 L127.2 628.774 L134.839 628.774 L134.839 632.709 L114.931 632.709 L114.931 628.774 Z" fill="#000000" fill-rule="nonzero" fill-opacity="1" /><path clip-path="url(#clip110)" d="M154.283 601.227 Q150.672 601.227 148.843 604.792 Q147.038 608.334 147.038 615.463 Q147.038 622.57 148.843 626.135 Q150.672 629.676 154.283 629.676 Q157.917 629.676 159.723 626.135 Q161.552 622.57 161.552 615.463 Q161.552 608.334 159.723 604.792 Q157.917 601.227 154.283 601.227 M154.283 597.524 Q160.093 597.524 163.149 602.13 Q166.227 606.713 166.227 615.463 Q166.227 624.19 163.149 628.797 Q160.093 633.38 154.283 633.38 Q148.473 633.38 145.394 628.797 Q142.339 624.19 142.339 615.463 Q142.339 606.713 145.394 602.13 Q148.473 597.524 154.283 597.524 Z" fill="#000000" fill-rule="nonzero" fill-opacity="1" /><path clip-path="url(#clip110)" d="M174.445 626.829 L179.329 626.829 L179.329 632.709 L174.445 632.709 L174.445 626.829 Z" fill="#000000" fill-rule="nonzero" fill-opacity="1" /><path clip-path="url(#clip110)" d="M199.514 601.227 Q195.903 601.227 194.075 604.792 Q192.269 608.334 192.269 615.463 Q192.269 622.57 194.075 626.135 Q195.903 629.676 199.514 629.676 Q203.149 629.676 204.954 626.135 Q206.783 622.57 206.783 615.463 Q206.783 608.334 204.954 604.792 Q203.149 601.227 199.514 601.227 M199.514 597.524 Q205.324 597.524 208.38 602.13 Q211.459 606.713 211.459 615.463 Q211.459 624.19 208.38 628.797 Q205.324 633.38 199.514 633.38 Q193.704 633.38 190.625 628.797 Q187.57 624.19 187.57 615.463 Q187.57 606.713 190.625 602.13 Q193.704 597.524 199.514 597.524 Z" fill="#000000" fill-rule="nonzero" fill-opacity="1" /><path clip-path="url(#clip110)" d="M115.927 365.611 L123.566 365.611 L123.566 339.246 L115.256 340.912 L115.256 336.653 L123.519 334.987 L128.195 334.987 L128.195 365.611 L135.834 365.611 L135.834 369.547 L115.927 369.547 L115.927 365.611 Z" fill="#000000" fill-rule="nonzero" fill-opacity="1" /><path clip-path="url(#clip110)" d="M149.306 365.611 L165.626 365.611 L165.626 369.547 L143.681 369.547 L143.681 365.611 Q146.343 362.857 150.927 358.227 Q155.533 353.574 156.714 352.232 Q158.959 349.709 159.839 347.973 Q160.741 346.213 160.741 344.524 Q160.741 341.769 158.797 340.033 Q156.876 338.297 153.774 338.297 Q151.575 338.297 149.121 339.061 Q146.691 339.824 143.913 341.375 L143.913 336.653 Q146.737 335.519 149.191 334.94 Q151.644 334.362 153.681 334.362 Q159.052 334.362 162.246 337.047 Q165.44 339.732 165.44 344.223 Q165.44 346.352 164.63 348.274 Q163.843 350.172 161.737 352.764 Q161.158 353.436 158.056 356.653 Q154.954 359.848 149.306 365.611 Z" fill="#000000" fill-rule="nonzero" fill-opacity="1" /><path clip-path="url(#clip110)" d="M175.44 363.667 L180.325 363.667 L180.325 369.547 L175.44 369.547 L175.44 363.667 Z" fill="#000000" fill-rule="nonzero" fill-opacity="1" /><path clip-path="url(#clip110)" d="M190.556 334.987 L208.912 334.987 L208.912 338.922 L194.838 338.922 L194.838 347.394 Q195.857 347.047 196.875 346.885 Q197.894 346.699 198.912 346.699 Q204.699 346.699 208.079 349.871 Q211.459 353.042 211.459 358.459 Q211.459 364.037 207.987 367.139 Q204.514 370.218 198.195 370.218 Q196.019 370.218 193.75 369.847 Q191.505 369.477 189.098 368.736 L189.098 364.037 Q191.181 365.172 193.403 365.727 Q195.625 366.283 198.102 366.283 Q202.107 366.283 204.445 364.176 Q206.783 362.07 206.783 358.459 Q206.783 354.848 204.445 352.741 Q202.107 350.635 198.102 350.635 Q196.227 350.635 194.352 351.051 Q192.5 351.468 190.556 352.348 L190.556 334.987 Z" fill="#000000" fill-rule="nonzero" fill-opacity="1" /><path clip-path="url(#clip110)" d="M67.3143 837.349 Q73.68 839.832 75.6216 842.187 Q77.5631 844.542 77.5631 848.489 L77.5631 853.168 L72.6615 853.168 L72.6615 849.73 Q72.6615 847.311 71.5157 845.975 Q70.3699 844.638 66.1048 843.015 L63.4312 841.964 L28.3562 856.383 L28.3562 850.176 L56.238 839.036 L28.3562 827.896 L28.3562 821.689 L67.3143 837.349 Z" fill="#000000" fill-rule="nonzero" fill-opacity="1" /><path clip-path="url(#clip110)" d="M14.5426 778.816 Q21.8632 783.081 29.0246 785.15 Q36.186 787.219 43.5384 787.219 Q50.8908 787.219 58.1159 785.15 Q65.3091 783.05 72.5979 778.816 L72.5979 783.909 Q65.1182 788.683 57.8931 791.07 Q50.668 793.426 43.5384 793.426 Q36.4406 793.426 29.2474 791.07 Q22.0542 788.715 14.5426 783.909 L14.5426 778.816 Z" fill="#000000" fill-rule="nonzero" fill-opacity="1" /><path clip-path="url(#clip110)" d="M35.1993 739.699 Q31.2526 737.503 29.3747 734.447 Q27.4968 731.392 27.4968 727.254 Q27.4968 721.684 31.4117 718.66 Q35.2948 715.637 42.4881 715.637 L64.0042 715.637 L64.0042 721.525 L42.679 721.525 Q37.5546 721.525 35.072 723.339 Q32.5894 725.153 32.5894 728.877 Q32.5894 733.429 35.6131 736.071 Q38.6368 738.712 43.8567 738.712 L64.0042 738.712 L64.0042 744.601 L42.679 744.601 Q37.5228 744.601 35.072 746.415 Q32.5894 748.229 32.5894 752.017 Q32.5894 756.505 35.6449 759.146 Q38.6686 761.788 43.8567 761.788 L64.0042 761.788 L64.0042 767.676 L28.3562 767.676 L28.3562 761.788 L33.8944 761.788 Q30.616 759.783 29.0564 756.982 Q27.4968 754.181 27.4968 750.33 Q27.4968 746.447 29.4702 743.741 Q31.4436 741.004 35.1993 739.699 Z" fill="#000000" fill-rule="nonzero" fill-opacity="1" /><path clip-path="url(#clip110)" d="M14.5426 704.879 L14.5426 699.786 Q22.0542 695.012 29.2474 692.657 Q36.4406 690.269 43.5384 690.269 Q50.668 690.269 57.8931 692.657 Q65.1182 695.012 72.5979 699.786 L72.5979 704.879 Q65.3091 700.646 58.1159 698.577 Q50.8908 696.476 43.5384 696.476 Q36.186 696.476 29.0246 698.577 Q21.8632 700.646 14.5426 704.879 Z" fill="#000000" fill-rule="nonzero" fill-opacity="1" /><path clip-path="url(#clip110)" d="M593.083 12.096 L631.323 12.096 L631.323 18.9825 L601.266 18.9825 L601.266 36.8875 L630.067 36.8875 L630.067 43.7741 L601.266 43.7741 L601.266 65.6895 L632.052 65.6895 L632.052 72.576 L593.083 72.576 L593.083 12.096 Z" fill="#000000" fill-rule="nonzero" fill-opacity="1" /><path clip-path="url(#clip110)" d="M645.177 9.54393 L652.631 9.54393 L652.631 72.576 L645.177 72.576 L645.177 9.54393 Z" fill="#000000" fill-rule="nonzero" fill-opacity="1" /><path clip-path="url(#clip110)" d="M707.035 48.0275 L707.035 51.6733 L672.764 51.6733 Q673.25 59.3701 677.382 63.421 Q681.554 67.4314 688.968 67.4314 Q693.262 67.4314 697.272 66.3781 Q701.323 65.3249 705.293 63.2184 L705.293 70.267 Q701.282 71.9684 697.069 72.8596 Q692.857 73.7508 688.522 73.7508 Q677.666 73.7508 671.306 67.4314 Q664.986 61.1119 664.986 50.3365 Q664.986 39.1965 670.982 32.6746 Q677.017 26.1121 687.226 26.1121 Q696.381 26.1121 701.687 32.0264 Q707.035 37.9003 707.035 48.0275 M699.581 45.84 Q699.5 39.7232 696.138 36.0774 Q692.816 32.4315 687.307 32.4315 Q681.068 32.4315 677.301 35.9558 Q673.574 39.4801 673.007 45.8805 L699.581 45.84 Z" fill="#000000" fill-rule="nonzero" fill-opacity="1" /><path clip-path="url(#clip110)" d="M751.919 28.9478 L751.919 35.9153 Q748.759 34.1734 745.559 33.3227 Q742.399 32.4315 739.158 32.4315 Q731.907 32.4315 727.897 37.0496 Q723.886 41.6271 723.886 49.9314 Q723.886 58.2358 727.897 62.8538 Q731.907 67.4314 739.158 67.4314 Q742.399 67.4314 745.559 66.5807 Q748.759 65.6895 751.919 63.9476 L751.919 70.8341 Q748.799 72.2924 745.437 73.0216 Q742.116 73.7508 738.348 73.7508 Q728.099 73.7508 722.064 67.3098 Q716.028 60.8689 716.028 49.9314 Q716.028 38.832 722.104 32.472 Q728.221 26.1121 738.834 26.1121 Q742.278 26.1121 745.559 26.8413 Q748.84 27.5299 751.919 28.9478 Z" fill="#000000" fill-rule="nonzero" fill-opacity="1" /><path clip-path="url(#clip110)" d="M772.254 14.324 L772.254 27.2059 L787.607 27.2059 L787.607 32.9987 L772.254 32.9987 L772.254 57.6282 Q772.254 63.1779 773.753 64.7578 Q775.292 66.3376 779.951 66.3376 L787.607 66.3376 L787.607 72.576 L779.951 72.576 Q771.323 72.576 768.041 69.3758 Q764.76 66.1351 764.76 57.6282 L764.76 32.9987 L759.291 32.9987 L759.291 27.2059 L764.76 27.2059 L764.76 14.324 L772.254 14.324 Z" fill="#000000" fill-rule="nonzero" fill-opacity="1" /><path clip-path="url(#clip110)" d="M823.701 34.1734 Q822.445 33.4443 820.946 33.1202 Q819.488 32.7556 817.705 32.7556 Q811.386 32.7556 807.983 36.8875 Q804.621 40.9789 804.621 48.6757 L804.621 72.576 L797.127 72.576 L797.127 27.2059 L804.621 27.2059 L804.621 34.2544 Q806.97 30.1225 810.738 28.1376 Q814.505 26.1121 819.893 26.1121 Q820.663 26.1121 821.594 26.2337 Q822.526 26.3147 823.66 26.5172 L823.701 34.1734 Z" fill="#000000" fill-rule="nonzero" fill-opacity="1" /><path clip-path="url(#clip110)" d="M831.519 27.2059 L838.973 27.2059 L838.973 72.576 L831.519 72.576 L831.519 27.2059 M831.519 9.54393 L838.973 9.54393 L838.973 18.9825 L831.519 18.9825 L831.519 9.54393 Z" fill="#000000" fill-rule="nonzero" fill-opacity="1" /><path clip-path="url(#clip110)" d="M887.219 28.9478 L887.219 35.9153 Q884.059 34.1734 880.859 33.3227 Q877.699 32.4315 874.459 32.4315 Q867.207 32.4315 863.197 37.0496 Q859.187 41.6271 859.187 49.9314 Q859.187 58.2358 863.197 62.8538 Q867.207 67.4314 874.459 67.4314 Q877.699 67.4314 880.859 66.5807 Q884.059 65.6895 887.219 63.9476 L887.219 70.8341 Q884.1 72.2924 880.737 73.0216 Q877.416 73.7508 873.648 73.7508 Q863.4 73.7508 857.364 67.3098 Q851.328 60.8689 851.328 49.9314 Q851.328 38.832 857.404 32.472 Q863.521 26.1121 874.134 26.1121 Q877.578 26.1121 880.859 26.8413 Q884.14 27.5299 887.219 28.9478 Z" fill="#000000" fill-rule="nonzero" fill-opacity="1" /><path clip-path="url(#clip110)" d="M972.166 16.7545 L972.166 25.383 Q968.034 21.5346 963.335 19.6307 Q958.677 17.7268 953.411 17.7268 Q943.04 17.7268 937.531 24.0867 Q932.022 30.4061 932.022 42.3968 Q932.022 54.3469 937.531 60.7069 Q943.04 67.0263 953.411 67.0263 Q958.677 67.0263 963.335 65.1223 Q968.034 63.2184 972.166 59.3701 L972.166 67.9175 Q967.872 70.8341 963.052 72.2924 Q958.272 73.7508 952.925 73.7508 Q939.192 73.7508 931.293 65.3654 Q923.393 56.9395 923.393 42.3968 Q923.393 27.8135 931.293 19.4281 Q939.192 11.0023 952.925 11.0023 Q958.353 11.0023 963.133 12.4606 Q967.953 13.8784 972.166 16.7545 Z" fill="#000000" fill-rule="nonzero" fill-opacity="1" /><path clip-path="url(#clip110)" d="M1022.2 45.1919 L1022.2 72.576 L1014.74 72.576 L1014.74 45.4349 Q1014.74 38.994 1012.23 35.7938 Q1009.72 32.5936 1004.7 32.5936 Q998.659 32.5936 995.175 36.4419 Q991.692 40.2903 991.692 46.9338 L991.692 72.576 L984.198 72.576 L984.198 9.54393 L991.692 9.54393 L991.692 34.2544 Q994.365 30.163 997.971 28.1376 Q1001.62 26.1121 1006.36 26.1121 Q1014.17 26.1121 1018.18 30.9732 Q1022.2 35.7938 1022.2 45.1919 Z" fill="#000000" fill-rule="nonzero" fill-opacity="1" /><path clip-path="url(#clip110)" d="M1057.68 49.7694 Q1048.65 49.7694 1045.16 51.8354 Q1041.68 53.9013 1041.68 58.8839 Q1041.68 62.8538 1044.27 65.2034 Q1046.91 67.5124 1051.4 67.5124 Q1057.6 67.5124 1061.33 63.1374 Q1065.09 58.7219 1065.09 51.4303 L1065.09 49.7694 L1057.68 49.7694 M1072.55 46.6907 L1072.55 72.576 L1065.09 72.576 L1065.09 65.6895 Q1062.54 69.8214 1058.73 71.8063 Q1054.93 73.7508 1049.42 73.7508 Q1042.45 73.7508 1038.32 69.8619 Q1034.23 65.9325 1034.23 59.3701 Q1034.23 51.7138 1039.33 47.825 Q1044.47 43.9361 1054.64 43.9361 L1065.09 43.9361 L1065.09 43.2069 Q1065.09 38.0623 1061.69 35.2672 Q1058.33 32.4315 1052.21 32.4315 Q1048.32 32.4315 1044.64 33.3632 Q1040.95 34.295 1037.55 36.1584 L1037.55 29.2718 Q1041.64 27.692 1045.49 26.9223 Q1049.34 26.1121 1052.98 26.1121 Q1062.83 26.1121 1067.69 31.2163 Q1072.55 36.3204 1072.55 46.6907 Z" fill="#000000" fill-rule="nonzero" fill-opacity="1" /><path clip-path="url(#clip110)" d="M1114.19 34.1734 Q1112.94 33.4443 1111.44 33.1202 Q1109.98 32.7556 1108.2 32.7556 Q1101.88 32.7556 1098.47 36.8875 Q1095.11 40.9789 1095.11 48.6757 L1095.11 72.576 L1087.62 72.576 L1087.62 27.2059 L1095.11 27.2059 L1095.11 34.2544 Q1097.46 30.1225 1101.23 28.1376 Q1105 26.1121 1110.38 26.1121 Q1111.15 26.1121 1112.08 26.2337 Q1113.02 26.3147 1114.15 26.5172 L1114.19 34.1734 Z" fill="#000000" fill-rule="nonzero" fill-opacity="1" /><path clip-path="url(#clip110)" d="M1150.41 49.3643 Q1150.41 41.2625 1147.04 36.8065 Q1143.72 32.3505 1137.69 32.3505 Q1131.69 32.3505 1128.33 36.8065 Q1125.01 41.2625 1125.01 49.3643 Q1125.01 57.4256 1128.33 61.8816 Q1131.69 66.3376 1137.69 66.3376 Q1143.72 66.3376 1147.04 61.8816 Q1150.41 57.4256 1150.41 49.3643 M1157.86 66.9452 Q1157.86 78.5308 1152.72 84.1616 Q1147.57 89.8329 1136.96 89.8329 Q1133.03 89.8329 1129.54 89.2252 Q1126.06 88.6581 1122.78 87.4428 L1122.78 80.1917 Q1126.06 81.9741 1129.26 82.8248 Q1132.46 83.6755 1135.78 83.6755 Q1143.11 83.6755 1146.76 79.8271 Q1150.41 76.0193 1150.41 68.282 L1150.41 64.5957 Q1148.1 68.6061 1144.49 70.5911 Q1140.89 72.576 1135.86 72.576 Q1127.52 72.576 1122.41 66.2161 Q1117.31 59.8562 1117.31 49.3643 Q1117.31 38.832 1122.41 32.472 Q1127.52 26.1121 1135.86 26.1121 Q1140.89 26.1121 1144.49 28.0971 Q1148.1 30.082 1150.41 34.0924 L1150.41 27.2059 L1157.86 27.2059 L1157.86 66.9452 Z" fill="#000000" fill-rule="nonzero" fill-opacity="1" /><path clip-path="url(#clip110)" d="M1212.02 48.0275 L1212.02 51.6733 L1177.75 51.6733 Q1178.24 59.3701 1182.37 63.421 Q1186.54 67.4314 1193.95 67.4314 Q1198.25 67.4314 1202.26 66.3781 Q1206.31 65.3249 1210.28 63.2184 L1210.28 70.267 Q1206.27 71.9684 1202.06 72.8596 Q1197.84 73.7508 1193.51 73.7508 Q1182.65 73.7508 1176.29 67.4314 Q1169.97 61.1119 1169.97 50.3365 Q1169.97 39.1965 1175.97 32.6746 Q1182 26.1121 1192.21 26.1121 Q1201.37 26.1121 1206.67 32.0264 Q1212.02 37.9003 1212.02 48.0275 M1204.57 45.84 Q1204.49 39.7232 1201.12 36.0774 Q1197.8 32.4315 1192.29 32.4315 Q1186.05 32.4315 1182.29 35.9558 Q1178.56 39.4801 1177.99 45.8805 L1204.57 45.84 Z" fill="#000000" fill-rule="nonzero" fill-opacity="1" /><path clip-path="url(#clip110)" d="M1253.18 28.5427 L1253.18 35.5912 Q1250.02 33.9709 1246.62 33.1607 Q1243.21 32.3505 1239.57 32.3505 Q1234.02 32.3505 1231.22 34.0519 Q1228.47 35.7533 1228.47 39.156 Q1228.47 41.7486 1230.45 43.2475 Q1232.44 44.7058 1238.43 46.0426 L1240.98 46.6097 Q1248.92 48.3111 1252.25 51.4303 Q1255.61 54.509 1255.61 60.0587 Q1255.61 66.3781 1250.59 70.0644 Q1245.6 73.7508 1236.85 73.7508 Q1233.21 73.7508 1229.24 73.0216 Q1225.31 72.3329 1220.93 70.9151 L1220.93 63.2184 Q1225.06 65.3654 1229.07 66.4591 Q1233.09 67.5124 1237.01 67.5124 Q1242.28 67.5124 1245.12 65.73 Q1247.95 63.9071 1247.95 60.6258 Q1247.95 57.5877 1245.89 55.9673 Q1243.86 54.3469 1236.93 52.8481 L1234.34 52.2405 Q1227.41 50.7821 1224.34 47.7845 Q1221.26 44.7463 1221.26 39.4801 Q1221.26 33.0797 1225.79 29.5959 Q1230.33 26.1121 1238.68 26.1121 Q1242.81 26.1121 1246.45 26.7198 Q1250.1 27.3274 1253.18 28.5427 Z" fill="#000000" fill-rule="nonzero" fill-opacity="1" /><path clip-path="url(#clip110)" d="M1290.08 46.5287 L1311.92 46.5287 L1311.92 53.1722 L1290.08 53.1722 L1290.08 46.5287 Z" fill="#000000" fill-rule="nonzero" fill-opacity="1" /><path clip-path="url(#clip110)" d="M1350.48 12.096 L1361.5 12.096 L1388.32 62.6918 L1388.32 12.096 L1396.26 12.096 L1396.26 72.576 L1385.24 72.576 L1358.42 21.9802 L1358.42 72.576 L1350.48 72.576 L1350.48 12.096 Z" fill="#000000" fill-rule="nonzero" fill-opacity="1" /><path clip-path="url(#clip110)" d="M1413.19 34.9026 L1465.12 34.9026 L1465.12 41.7081 L1413.19 41.7081 L1413.19 34.9026 M1413.19 51.4303 L1465.12 51.4303 L1465.12 58.3168 L1413.19 58.3168 L1413.19 51.4303 Z" fill="#000000" fill-rule="nonzero" fill-opacity="1" /><path clip-path="url(#clip110)" d="M1484.2 65.6895 L1497.57 65.6895 L1497.57 19.5497 L1483.03 22.4663 L1483.03 15.0127 L1497.49 12.096 L1505.67 12.096 L1505.67 65.6895 L1519.04 65.6895 L1519.04 72.576 L1484.2 72.576 L1484.2 65.6895 Z" fill="#000000" fill-rule="nonzero" fill-opacity="1" /><path clip-path="url(#clip110)" d="M1542.61 65.6895 L1571.17 65.6895 L1571.17 72.576 L1532.77 72.576 L1532.77 65.6895 Q1537.43 60.8689 1545.45 52.7671 Q1553.51 44.6248 1555.58 42.2752 Q1559.51 37.8598 1561.05 34.8216 Q1562.63 31.7429 1562.63 28.7857 Q1562.63 23.9651 1559.22 20.927 Q1555.86 17.8888 1550.43 17.8888 Q1546.58 17.8888 1542.29 19.2256 Q1538.04 20.5624 1533.18 23.2765 L1533.18 15.0127 Q1538.12 13.0277 1542.41 12.015 Q1546.71 11.0023 1550.27 11.0023 Q1559.67 11.0023 1565.26 15.7013 Q1570.85 20.4004 1570.85 28.2591 Q1570.85 31.9859 1569.43 35.3482 Q1568.05 38.6699 1564.37 43.2069 Q1563.36 44.3817 1557.93 50.0125 Q1552.5 55.6027 1542.61 65.6895 Z" fill="#000000" fill-rule="nonzero" fill-opacity="1" /><path clip-path="url(#clip110)" d="M1631.57 9.62495 Q1626.14 18.942 1623.51 28.0566 Q1620.88 37.1711 1620.88 46.5287 Q1620.88 55.8863 1623.51 65.0818 Q1626.18 74.2369 1631.57 83.5134 L1625.09 83.5134 Q1619.01 73.9938 1615.98 64.7983 Q1612.98 55.6027 1612.98 46.5287 Q1612.98 37.4952 1615.98 28.3401 Q1618.97 19.1851 1625.09 9.62495 L1631.57 9.62495 Z" fill="#000000" fill-rule="nonzero" fill-opacity="1" /><path clip-path="url(#clip110)" d="M1682.61 14.0809 L1682.61 22.0612 Q1677.96 19.8332 1673.82 18.7395 Q1669.69 17.6457 1665.84 17.6457 Q1659.16 17.6457 1655.51 20.2383 Q1651.91 22.8309 1651.91 27.611 Q1651.91 31.6214 1654.3 33.6873 Q1656.73 35.7128 1663.45 36.9686 L1668.4 37.9813 Q1677.55 39.7232 1681.88 44.1387 Q1686.26 48.5136 1686.26 55.8863 Q1686.26 64.6767 1680.35 69.2137 Q1674.47 73.7508 1663.09 73.7508 Q1658.79 73.7508 1653.93 72.7785 Q1649.11 71.8063 1643.93 69.9024 L1643.93 61.4765 Q1648.91 64.2716 1653.69 65.6895 Q1658.47 67.1073 1663.09 67.1073 Q1670.1 67.1073 1673.9 64.3527 Q1677.71 61.598 1677.71 56.4939 Q1677.71 52.0379 1674.96 49.5264 Q1672.24 47.0148 1666.01 45.759 L1661.02 44.7868 Q1651.87 42.9639 1647.78 39.075 Q1643.68 35.1862 1643.68 28.2591 Q1643.68 20.2383 1649.32 15.6203 Q1654.99 11.0023 1664.91 11.0023 Q1669.16 11.0023 1673.58 11.7719 Q1678 12.5416 1682.61 14.0809 Z" fill="#000000" fill-rule="nonzero" fill-opacity="1" /><path clip-path="url(#clip110)" d="M1699.02 12.096 L1737.26 12.096 L1737.26 18.9825 L1707.2 18.9825 L1707.2 36.8875 L1736 36.8875 L1736 43.7741 L1707.2 43.7741 L1707.2 65.6895 L1737.99 65.6895 L1737.99 72.576 L1699.02 72.576 L1699.02 12.096 Z" fill="#000000" fill-rule="nonzero" fill-opacity="1" /><path clip-path="url(#clip110)" d="M1751.44 12.096 L1789.68 12.096 L1789.68 18.9825 L1759.62 18.9825 L1759.62 36.8875 L1788.42 36.8875 L1788.42 43.7741 L1759.62 43.7741 L1759.62 65.6895 L1790.41 65.6895 L1790.41 72.576 L1751.44 72.576 L1751.44 12.096 Z" fill="#000000" fill-rule="nonzero" fill-opacity="1" /><path clip-path="url(#clip110)" d="M1812.04 18.8205 L1812.04 65.8515 L1821.92 65.8515 Q1834.44 65.8515 1840.23 60.1802 Q1846.07 54.509 1846.07 42.2752 Q1846.07 30.1225 1840.23 24.4918 Q1834.44 18.8205 1821.92 18.8205 L1812.04 18.8205 M1803.86 12.096 L1820.67 12.096 Q1838.25 12.096 1846.47 19.4281 Q1854.7 26.7198 1854.7 42.2752 Q1854.7 57.9117 1846.43 65.2439 Q1838.17 72.576 1820.67 72.576 L1803.86 72.576 L1803.86 12.096 Z" fill="#000000" fill-rule="nonzero" fill-opacity="1" /><path clip-path="url(#clip110)" d="M1868.39 34.9026 L1920.32 34.9026 L1920.32 41.7081 L1868.39 41.7081 L1868.39 34.9026 M1868.39 51.4303 L1920.32 51.4303 L1920.32 58.3168 L1868.39 58.3168 L1868.39 51.4303 Z" fill="#000000" fill-rule="nonzero" fill-opacity="1" /><path clip-path="url(#clip110)" d="M1945.03 65.6895 L1973.59 65.6895 L1973.59 72.576 L1935.19 72.576 L1935.19 65.6895 Q1939.85 60.8689 1947.87 52.7671 Q1955.93 44.6248 1957.99 42.2752 Q1961.92 37.8598 1963.46 34.8216 Q1965.04 31.7429 1965.04 28.7857 Q1965.04 23.9651 1961.64 20.927 Q1958.28 17.8888 1952.85 17.8888 Q1949 17.8888 1944.71 19.2256 Q1940.45 20.5624 1935.59 23.2765 L1935.59 15.0127 Q1940.54 13.0277 1944.83 12.015 Q1949.12 11.0023 1952.69 11.0023 Q1962.09 11.0023 1967.68 15.7013 Q1973.27 20.4004 1973.27 28.2591 Q1973.27 31.9859 1971.85 35.3482 Q1970.47 38.6699 1966.78 43.2069 Q1965.77 44.3817 1960.34 50.0125 Q1954.92 55.6027 1945.03 65.6895 Z" fill="#000000" fill-rule="nonzero" fill-opacity="1" /><path clip-path="url(#clip110)" d="M1988.54 9.62495 L1995.02 9.62495 Q2001.1 19.1851 2004.09 28.3401 Q2007.13 37.4952 2007.13 46.5287 Q2007.13 55.6027 2004.09 64.7983 Q2001.1 73.9938 1995.02 83.5134 L1988.54 83.5134 Q1993.93 74.2369 1996.56 65.0818 Q1999.23 55.8863 1999.23 46.5287 Q1999.23 37.1711 1996.56 28.0566 Q1993.93 18.942 1988.54 9.62495 Z" fill="#000000" fill-rule="nonzero" fill-opacity="1" /><circle clip-path="url(#clip112)" cx="1826.44" cy="773.313" r="18" fill="#ff0000" fill-rule="evenodd" fill-opacity="1" stroke="#000000" stroke-opacity="1" stroke-width="0"/>
<circle clip-path="url(#clip112)" cx="1755.93" cy="628.574" r="18" fill="#ff0000" fill-rule="evenodd" fill-opacity="1" stroke="#000000" stroke-opacity="1" stroke-width="0"/>
<circle clip-path="url(#clip112)" cx="1563.28" cy="522.617" r="18" fill="#ff0000" fill-rule="evenodd" fill-opacity="1" stroke="#000000" stroke-opacity="1" stroke-width="0"/>
<circle clip-path="url(#clip112)" cx="1300.12" cy="483.835" r="18" fill="#ff0000" fill-rule="evenodd" fill-opacity="1" stroke="#000000" stroke-opacity="1" stroke-width="0"/>
<circle clip-path="url(#clip112)" cx="1036.96" cy="522.617" r="18" fill="#ff0000" fill-rule="evenodd" fill-opacity="1" stroke="#000000" stroke-opacity="1" stroke-width="0"/>
<circle clip-path="url(#clip112)" cx="844.31" cy="628.574" r="18" fill="#ff0000" fill-rule="evenodd" fill-opacity="1" stroke="#000000" stroke-opacity="1" stroke-width="0"/>
<circle clip-path="url(#clip112)" cx="773.796" cy="773.313" r="18" fill="#ff0000" fill-rule="evenodd" fill-opacity="1" stroke="#000000" stroke-opacity="1" stroke-width="0"/>
<circle clip-path="url(#clip112)" cx="844.31" cy="918.052" r="18" fill="#ff0000" fill-rule="evenodd" fill-opacity="1" stroke="#000000" stroke-opacity="1" stroke-width="0"/>
<circle clip-path="url(#clip112)" cx="1036.96" cy="1024.01" r="18" fill="#ff0000" fill-rule="evenodd" fill-opacity="1" stroke="#000000" stroke-opacity="1" stroke-width="0"/>
<circle clip-path="url(#clip112)" cx="1300.12" cy="1062.79" r="18" fill="#ff0000" fill-rule="evenodd" fill-opacity="1" stroke="#000000" stroke-opacity="1" stroke-width="0"/>
<circle clip-path="url(#clip112)" cx="1563.28" cy="1024.01" r="18" fill="#ff0000" fill-rule="evenodd" fill-opacity="1" stroke="#000000" stroke-opacity="1" stroke-width="0"/>
<circle clip-path="url(#clip112)" cx="1755.93" cy="918.052" r="18" fill="#ff0000" fill-rule="evenodd" fill-opacity="1" stroke="#000000" stroke-opacity="1" stroke-width="0"/>
</svg>
