<?xml version="1.0" encoding="utf-8"?>
<svg xmlns="http://www.w3.org/2000/svg" xmlns:xlink="http://www.w3.org/1999/xlink" width="600" height="400" viewBox="0 0 2400 1600">
<defs>
  <clipPath id="clip100">
    <rect x="0" y="0" width="2400" height="1600"/>
  </clipPath>
</defs>
<path clip-path="url(#clip100)" d="M0 1600 L2400 1600 L2400 0 L0 0  Z" fill="#ffffff" fill-rule="evenodd" fill-opacity="1"/>
<defs>
  <clipPath id="clip101">
    <rect x="480" y="0" width="1681" height="1600"/>
  </clipPath>
</defs>
<path clip-path="url(#clip100)" d="M175.445 1099.92 L2352.76 1099.92 L2352.76 446.729 L175.445 446.729  Z" fill="#ffffff" fill-rule="evenodd" fill-opacity="1"/>
<defs>
  <clipPath id="clip102">
    <rect x="175" y="446" width="2178" height="654"/>
  </clipPath>
</defs>
<polyline clip-path="url(#clip102)" style="stroke:#000000; stroke-linecap:round; stroke-linejoin:round; stroke-width:2; stroke-opacity:0.1; fill:none" points="175.445,1099.92 175.445,446.729 "/>
<polyline clip-path="url(#clip102)" style="stroke:#000000; stroke-linecap:round; stroke-linejoin:round; stroke-width:2; stroke-opacity:0.1; fill:none" points="719.773,1099.92 719.773,446.729 "/>
<polyline clip-path="url(#clip102)" style="stroke:#000000; stroke-linecap:round; stroke-linejoin:round; stroke-width:2; stroke-opacity:0.1; fill:none" points="1264.1,1099.92 1264.1,446.729 "/>
<polyline clip-path="url(#clip102)" style="stroke:#000000; stroke-linecap:round; stroke-linejoin:round; stroke-width:2; stroke-opacity:0.1; fill:none" points="1808.43,1099.92 1808.43,446.729 "/>
<polyline clip-path="url(#clip102)" style="stroke:#000000; stroke-linecap:round; stroke-linejoin:round; stroke-width:2; stroke-opacity:0.1; fill:none" points="2352.76,1099.92 2352.76,446.729 "/>
<polyline clip-path="url(#clip100)" style="stroke:#000000; stroke-linecap:round; stroke-linejoin:round; stroke-width:4; stroke-opacity:1; fill:none" points="175.445,1099.92 2352.76,1099.92 "/>
<polyline clip-path="url(#clip100)" style="stroke:#000000; stroke-linecap:round; stroke-linejoin:round; stroke-width:4; stroke-opacity:1; fill:none" points="175.445,1099.92 175.445,1090.43 "/>
<polyline clip-path="url(#clip100)" style="stroke:#000000; stroke-linecap:round; stroke-linejoin:round; stroke-width:4; stroke-opacity:1; fill:none" points="719.773,1099.92 719.773,1090.43 "/>
<polyline clip-path="url(#clip100)" style="stroke:#000000; stroke-linecap:round; stroke-linejoin:round; stroke-width:4; stroke-opacity:1; fill:none" points="1264.1,1099.92 1264.1,1090.43 "/>
<polyline clip-path="url(#clip100)" style="stroke:#000000; stroke-linecap:round; stroke-linejoin:round; stroke-width:4; stroke-opacity:1; fill:none" points="1808.43,1099.92 1808.43,1090.43 "/>
<polyline clip-path="url(#clip100)" style="stroke:#000000; stroke-linecap:round; stroke-linejoin:round; stroke-width:4; stroke-opacity:1; fill:none" points="2352.76,1099.92 2352.76,1090.43 "/>
<path clip-path="url(#clip100)" d="M129.508 1145.49 L159.184 1145.49 L159.184 1149.43 L129.508 1149.43 L129.508 1145.49 Z" fill="#000000" fill-rule="nonzero" fill-opacity="1" /><path clip-path="url(#clip100)" d="M170.086 1158.39 L177.725 1158.39 L177.725 1132.02 L169.415 1133.69 L169.415 1129.43 L177.679 1127.76 L182.355 1127.76 L182.355 1158.39 L189.994 1158.39 L189.994 1162.32 L170.086 1162.32 L170.086 1158.39 Z" fill="#000000" fill-rule="nonzero" fill-opacity="1" /><path clip-path="url(#clip100)" d="M209.438 1130.84 Q205.827 1130.84 203.998 1134.41 Q202.193 1137.95 202.193 1145.08 Q202.193 1152.18 203.998 1155.75 Q205.827 1159.29 209.438 1159.29 Q213.072 1159.29 214.878 1155.75 Q216.707 1152.18 216.707 1145.08 Q216.707 1137.95 214.878 1134.41 Q213.072 1130.84 209.438 1130.84 M209.438 1127.14 Q215.248 1127.14 218.304 1131.74 Q221.382 1136.33 221.382 1145.08 Q221.382 1153.8 218.304 1158.41 Q215.248 1162.99 209.438 1162.99 Q203.628 1162.99 200.549 1158.41 Q197.494 1153.8 197.494 1145.08 Q197.494 1136.33 200.549 1131.74 Q203.628 1127.14 209.438 1127.14 Z" fill="#000000" fill-rule="nonzero" fill-opacity="1" /><path clip-path="url(#clip100)" d="M689.414 1145.49 L719.09 1145.49 L719.09 1149.43 L689.414 1149.43 L689.414 1145.49 Z" fill="#000000" fill-rule="nonzero" fill-opacity="1" /><path clip-path="url(#clip100)" d="M729.229 1127.76 L747.585 1127.76 L747.585 1131.7 L733.511 1131.7 L733.511 1140.17 Q734.53 1139.82 735.548 1139.66 Q736.567 1139.48 737.585 1139.48 Q743.372 1139.48 746.752 1142.65 Q750.132 1145.82 750.132 1151.23 Q750.132 1156.81 746.659 1159.92 Q743.187 1162.99 736.868 1162.99 Q734.692 1162.99 732.423 1162.62 Q730.178 1162.25 727.771 1161.51 L727.771 1156.81 Q729.854 1157.95 732.076 1158.5 Q734.298 1159.06 736.775 1159.06 Q740.78 1159.06 743.118 1156.95 Q745.456 1154.85 745.456 1151.23 Q745.456 1147.62 743.118 1145.52 Q740.78 1143.41 736.775 1143.41 Q734.9 1143.41 733.025 1143.83 Q731.173 1144.24 729.229 1145.12 L729.229 1127.76 Z" fill="#000000" fill-rule="nonzero" fill-opacity="1" /><path clip-path="url(#clip100)" d="M1264.1 1130.84 Q1260.49 1130.84 1258.66 1134.41 Q1256.86 1137.95 1256.86 1145.08 Q1256.86 1152.18 1258.66 1155.75 Q1260.49 1159.29 1264.1 1159.29 Q1267.73 1159.29 1269.54 1155.75 Q1271.37 1152.18 1271.37 1145.08 Q1271.37 1137.95 1269.54 1134.41 Q1267.73 1130.84 1264.1 1130.84 M1264.1 1127.14 Q1269.91 1127.14 1272.97 1131.74 Q1276.04 1136.33 1276.04 1145.08 Q1276.04 1153.8 1272.97 1158.41 Q1269.91 1162.99 1264.1 1162.99 Q1258.29 1162.99 1255.21 1158.41 Q1252.16 1153.8 1252.16 1145.08 Q1252.16 1136.33 1255.21 1131.74 Q1258.29 1127.14 1264.1 1127.14 Z" fill="#000000" fill-rule="nonzero" fill-opacity="1" /><path clip-path="url(#clip100)" d="M1798.71 1127.76 L1817.06 1127.76 L1817.06 1131.7 L1802.99 1131.7 L1802.99 1140.17 Q1804.01 1139.82 1805.03 1139.66 Q1806.04 1139.48 1807.06 1139.48 Q1812.85 1139.48 1816.23 1142.65 Q1819.61 1145.82 1819.61 1151.23 Q1819.61 1156.81 1816.14 1159.92 Q1812.66 1162.99 1806.34 1162.99 Q1804.17 1162.99 1801.9 1162.62 Q1799.66 1162.25 1797.25 1161.51 L1797.25 1156.81 Q1799.33 1157.95 1801.55 1158.5 Q1803.78 1159.06 1806.25 1159.06 Q1810.26 1159.06 1812.59 1156.95 Q1814.93 1154.85 1814.93 1151.23 Q1814.93 1147.62 1812.59 1145.52 Q1810.26 1143.41 1806.25 1143.41 Q1804.38 1143.41 1802.5 1143.83 Q1800.65 1144.24 1798.71 1145.12 L1798.71 1127.76 Z" fill="#000000" fill-rule="nonzero" fill-opacity="1" /><path clip-path="url(#clip100)" d="M2327.44 1158.39 L2335.08 1158.39 L2335.08 1132.02 L2326.77 1133.69 L2326.77 1129.43 L2335.04 1127.76 L2339.71 1127.76 L2339.71 1158.39 L2347.35 1158.39 L2347.35 1162.32 L2327.44 1162.32 L2327.44 1158.39 Z" fill="#000000" fill-rule="nonzero" fill-opacity="1" /><path clip-path="url(#clip100)" d="M2366.8 1130.84 Q2363.18 1130.84 2361.36 1134.41 Q2359.55 1137.95 2359.55 1145.08 Q2359.55 1152.18 2361.36 1155.75 Q2363.18 1159.29 2366.8 1159.29 Q2370.43 1159.29 2372.23 1155.75 Q2374.06 1152.18 2374.06 1145.08 Q2374.06 1137.95 2372.23 1134.41 Q2370.43 1130.84 2366.8 1130.84 M2366.8 1127.14 Q2372.61 1127.14 2375.66 1131.74 Q2378.74 1136.33 2378.74 1145.08 Q2378.74 1153.8 2375.66 1158.41 Q2372.61 1162.99 2366.8 1162.99 Q2360.99 1162.99 2357.91 1158.41 Q2354.85 1153.8 2354.85 1145.08 Q2354.85 1136.33 2357.91 1131.74 Q2360.99 1127.14 2366.8 1127.14 Z" fill="#000000" fill-rule="nonzero" fill-opacity="1" /><path clip-path="url(#clip100)" d="M1214.91 1209.14 L1202.02 1226.49 L1215.58 1244.79 L1208.67 1244.79 L1198.3 1230.78 L1187.92 1244.79 L1181.01 1244.79 L1194.86 1226.14 L1182.19 1209.14 L1189.1 1209.14 L1198.55 1221.84 L1208 1209.14 L1214.91 1209.14 Z" fill="#000000" fill-rule="nonzero" fill-opacity="1" /><path clip-path="url(#clip100)" d="M1258.64 1195.33 Q1254.38 1202.65 1252.31 1209.81 Q1250.24 1216.97 1250.24 1224.32 Q1250.24 1231.67 1252.31 1238.9 Q1254.41 1246.09 1258.64 1253.38 L1253.55 1253.38 Q1248.78 1245.9 1246.39 1238.68 Q1244.03 1231.45 1244.03 1224.32 Q1244.03 1217.22 1246.39 1210.03 Q1248.74 1202.84 1253.55 1195.33 L1258.64 1195.33 Z" fill="#000000" fill-rule="nonzero" fill-opacity="1" /><path clip-path="url(#clip100)" d="M1297.76 1215.98 Q1299.96 1212.04 1303.01 1210.16 Q1306.07 1208.28 1310.2 1208.28 Q1315.77 1208.28 1318.8 1212.19 Q1321.82 1216.08 1321.82 1223.27 L1321.82 1244.79 L1315.93 1244.79 L1315.93 1223.46 Q1315.93 1218.34 1314.12 1215.85 Q1312.3 1213.37 1308.58 1213.37 Q1304.03 1213.37 1301.39 1216.4 Q1298.75 1219.42 1298.75 1224.64 L1298.75 1244.79 L1292.86 1244.79 L1292.86 1223.46 Q1292.86 1218.31 1291.04 1215.85 Q1289.23 1213.37 1285.44 1213.37 Q1280.95 1213.37 1278.31 1216.43 Q1275.67 1219.45 1275.67 1224.64 L1275.67 1244.79 L1269.78 1244.79 L1269.78 1209.14 L1275.67 1209.14 L1275.67 1214.68 Q1277.68 1211.4 1280.48 1209.84 Q1283.28 1208.28 1287.13 1208.28 Q1291.01 1208.28 1293.72 1210.25 Q1296.45 1212.23 1297.76 1215.98 Z" fill="#000000" fill-rule="nonzero" fill-opacity="1" /><path clip-path="url(#clip100)" d="M1332.58 1195.33 L1337.67 1195.33 Q1342.45 1202.84 1344.8 1210.03 Q1347.19 1217.22 1347.19 1224.32 Q1347.19 1231.45 1344.8 1238.68 Q1342.45 1245.9 1337.67 1253.38 L1332.58 1253.38 Q1336.81 1246.09 1338.88 1238.9 Q1340.98 1231.67 1340.98 1224.32 Q1340.98 1216.97 1338.88 1209.81 Q1336.81 1202.65 1332.58 1195.33 Z" fill="#000000" fill-rule="nonzero" fill-opacity="1" /><polyline clip-path="url(#clip102)" style="stroke:#000000; stroke-linecap:round; stroke-linejoin:round; stroke-width:2; stroke-opacity:0.1; fill:none" points="175.445,1099.92 2352.76,1099.92 "/>
<polyline clip-path="url(#clip102)" style="stroke:#000000; stroke-linecap:round; stroke-linejoin:round; stroke-width:2; stroke-opacity:0.1; fill:none" points="175.445,991.057 2352.76,991.057 "/>
<polyline clip-path="url(#clip102)" style="stroke:#000000; stroke-linecap:round; stroke-linejoin:round; stroke-width:2; stroke-opacity:0.1; fill:none" points="175.445,882.192 2352.76,882.192 "/>
<polyline clip-path="url(#clip102)" style="stroke:#000000; stroke-linecap:round; stroke-linejoin:round; stroke-width:2; stroke-opacity:0.1; fill:none" points="175.445,773.326 2352.76,773.326 "/>
<polyline clip-path="url(#clip102)" style="stroke:#000000; stroke-linecap:round; stroke-linejoin:round; stroke-width:2; stroke-opacity:0.1; fill:none" points="175.445,664.46 2352.76,664.46 "/>
<polyline clip-path="url(#clip102)" style="stroke:#000000; stroke-linecap:round; stroke-linejoin:round; stroke-width:2; stroke-opacity:0.1; fill:none" points="175.445,555.595 2352.76,555.595 "/>
<polyline clip-path="url(#clip102)" style="stroke:#000000; stroke-linecap:round; stroke-linejoin:round; stroke-width:2; stroke-opacity:0.1; fill:none" points="175.445,446.729 2352.76,446.729 "/>
<polyline clip-path="url(#clip100)" style="stroke:#000000; stroke-linecap:round; stroke-linejoin:round; stroke-width:4; stroke-opacity:1; fill:none" points="175.445,1099.92 175.445,446.729 "/>
<polyline clip-path="url(#clip100)" style="stroke:#000000; stroke-linecap:round; stroke-linejoin:round; stroke-width:4; stroke-opacity:1; fill:none" points="175.445,1099.92 194.343,1099.92 "/>
<polyline clip-path="url(#clip100)" style="stroke:#000000; stroke-linecap:round; stroke-linejoin:round; stroke-width:4; stroke-opacity:1; fill:none" points="175.445,991.057 194.343,991.057 "/>
<polyline clip-path="url(#clip100)" style="stroke:#000000; stroke-linecap:round; stroke-linejoin:round; stroke-width:4; stroke-opacity:1; fill:none" points="175.445,882.192 194.343,882.192 "/>
<polyline clip-path="url(#clip100)" style="stroke:#000000; stroke-linecap:round; stroke-linejoin:round; stroke-width:4; stroke-opacity:1; fill:none" points="175.445,773.326 194.343,773.326 "/>
<polyline clip-path="url(#clip100)" style="stroke:#000000; stroke-linecap:round; stroke-linejoin:round; stroke-width:4; stroke-opacity:1; fill:none" points="175.445,664.46 194.343,664.46 "/>
<polyline clip-path="url(#clip100)" style="stroke:#000000; stroke-linecap:round; stroke-linejoin:round; stroke-width:4; stroke-opacity:1; fill:none" points="175.445,555.595 194.343,555.595 "/>
<polyline clip-path="url(#clip100)" style="stroke:#000000; stroke-linecap:round; stroke-linejoin:round; stroke-width:4; stroke-opacity:1; fill:none" points="175.445,446.729 194.343,446.729 "/>
<path clip-path="url(#clip100)" d="M132.316 1098.57 Q135.672 1099.29 137.547 1101.55 Q139.445 1103.82 139.445 1107.16 Q139.445 1112.27 135.927 1115.07 Q132.408 1117.87 125.927 1117.87 Q123.751 1117.87 121.436 1117.43 Q119.144 1117.02 116.691 1116.16 L116.691 1111.65 Q118.635 1112.78 120.95 1113.36 Q123.265 1113.94 125.788 1113.94 Q130.186 1113.94 132.478 1112.2 Q134.792 1110.47 134.792 1107.16 Q134.792 1104.1 132.64 1102.39 Q130.51 1100.65 126.691 1100.65 L122.663 1100.65 L122.663 1096.81 L126.876 1096.81 Q130.325 1096.81 132.154 1095.44 Q133.982 1094.05 133.982 1091.46 Q133.982 1088.8 132.084 1087.39 Q130.209 1085.95 126.691 1085.95 Q124.769 1085.95 122.57 1086.37 Q120.371 1086.79 117.732 1087.67 L117.732 1083.5 Q120.394 1082.76 122.709 1082.39 Q125.047 1082.02 127.107 1082.02 Q132.431 1082.02 135.533 1084.45 Q138.635 1086.86 138.635 1090.98 Q138.635 1093.85 136.992 1095.84 Q135.348 1097.8 132.316 1098.57 Z" fill="#000000" fill-rule="nonzero" fill-opacity="1" /><path clip-path="url(#clip100)" d="M129.862 977.851 L118.056 996.3 L129.862 996.3 L129.862 977.851 M128.635 973.777 L134.515 973.777 L134.515 996.3 L139.445 996.3 L139.445 1000.19 L134.515 1000.19 L134.515 1008.34 L129.862 1008.34 L129.862 1000.19 L114.26 1000.19 L114.26 995.675 L128.635 973.777 Z" fill="#000000" fill-rule="nonzero" fill-opacity="1" /><path clip-path="url(#clip100)" d="M118.543 864.912 L136.899 864.912 L136.899 868.847 L122.825 868.847 L122.825 877.319 Q123.843 876.972 124.862 876.81 Q125.88 876.624 126.899 876.624 Q132.686 876.624 136.066 879.796 Q139.445 882.967 139.445 888.384 Q139.445 893.962 135.973 897.064 Q132.501 900.143 126.181 900.143 Q124.005 900.143 121.737 899.772 Q119.492 899.402 117.084 898.661 L117.084 893.962 Q119.168 895.097 121.39 895.652 Q123.612 896.208 126.089 896.208 Q130.093 896.208 132.431 894.101 Q134.769 891.995 134.769 888.384 Q134.769 884.773 132.431 882.666 Q130.093 880.56 126.089 880.56 Q124.214 880.56 122.339 880.976 Q120.487 881.393 118.543 882.273 L118.543 864.912 Z" fill="#000000" fill-rule="nonzero" fill-opacity="1" /><path clip-path="url(#clip100)" d="M127.917 771.463 Q124.769 771.463 122.918 773.615 Q121.089 775.768 121.089 779.518 Q121.089 783.245 122.918 785.421 Q124.769 787.574 127.917 787.574 Q131.066 787.574 132.894 785.421 Q134.746 783.245 134.746 779.518 Q134.746 775.768 132.894 773.615 Q131.066 771.463 127.917 771.463 M137.2 756.81 L137.2 761.069 Q135.441 760.236 133.635 759.796 Q131.853 759.356 130.093 759.356 Q125.464 759.356 123.01 762.481 Q120.58 765.606 120.232 771.926 Q121.598 769.912 123.658 768.847 Q125.718 767.759 128.195 767.759 Q133.404 767.759 136.413 770.93 Q139.445 774.078 139.445 779.518 Q139.445 784.842 136.297 788.06 Q133.149 791.277 127.917 791.277 Q121.922 791.277 118.751 786.694 Q115.58 782.088 115.58 773.361 Q115.58 765.166 119.468 760.305 Q123.357 755.421 129.908 755.421 Q131.667 755.421 133.45 755.768 Q135.255 756.115 137.2 756.81 Z" fill="#000000" fill-rule="nonzero" fill-opacity="1" /><path clip-path="url(#clip100)" d="M117.223 647.18 L139.445 647.18 L139.445 649.171 L126.899 681.74 L122.015 681.74 L133.82 651.116 L117.223 651.116 L117.223 647.18 Z" fill="#000000" fill-rule="nonzero" fill-opacity="1" /><path clip-path="url(#clip100)" d="M127.593 556.463 Q124.26 556.463 122.339 558.245 Q120.441 560.028 120.441 563.153 Q120.441 566.278 122.339 568.06 Q124.26 569.843 127.593 569.843 Q130.927 569.843 132.848 568.06 Q134.769 566.255 134.769 563.153 Q134.769 560.028 132.848 558.245 Q130.95 556.463 127.593 556.463 M122.918 554.472 Q119.908 553.731 118.218 551.671 Q116.552 549.611 116.552 546.648 Q116.552 542.505 119.492 540.097 Q122.455 537.69 127.593 537.69 Q132.755 537.69 135.695 540.097 Q138.635 542.505 138.635 546.648 Q138.635 549.611 136.945 551.671 Q135.279 553.731 132.292 554.472 Q135.672 555.259 137.547 557.551 Q139.445 559.843 139.445 563.153 Q139.445 568.176 136.367 570.861 Q133.311 573.546 127.593 573.546 Q121.876 573.546 118.797 570.861 Q115.742 568.176 115.742 563.153 Q115.742 559.843 117.64 557.551 Q119.538 555.259 122.918 554.472 M121.205 547.088 Q121.205 549.773 122.871 551.278 Q124.561 552.782 127.593 552.782 Q130.603 552.782 132.292 551.278 Q134.005 549.773 134.005 547.088 Q134.005 544.403 132.292 542.898 Q130.603 541.394 127.593 541.394 Q124.561 541.394 122.871 542.898 Q121.205 544.403 121.205 547.088 Z" fill="#000000" fill-rule="nonzero" fill-opacity="1" /><path clip-path="url(#clip100)" d="M117.825 463.292 L117.825 459.033 Q119.584 459.866 121.39 460.306 Q123.195 460.746 124.931 460.746 Q129.561 460.746 131.992 457.644 Q134.445 454.519 134.792 448.176 Q133.45 450.167 131.39 451.232 Q129.33 452.296 126.83 452.296 Q121.644 452.296 118.612 449.171 Q115.603 446.023 115.603 440.584 Q115.603 435.26 118.751 432.042 Q121.899 428.824 127.13 428.824 Q133.126 428.824 136.274 433.431 Q139.445 438.014 139.445 446.764 Q139.445 454.935 135.556 459.82 Q131.691 464.681 125.14 464.681 Q123.38 464.681 121.575 464.333 Q119.769 463.986 117.825 463.292 M127.13 448.639 Q130.279 448.639 132.107 446.486 Q133.959 444.334 133.959 440.584 Q133.959 436.857 132.107 434.704 Q130.279 432.528 127.13 432.528 Q123.982 432.528 122.13 434.704 Q120.302 436.857 120.302 440.584 Q120.302 444.334 122.13 446.486 Q123.982 448.639 127.13 448.639 Z" fill="#000000" fill-rule="nonzero" fill-opacity="1" /><path clip-path="url(#clip100)" d="M67.3143 837.349 Q73.68 839.832 75.6216 842.187 Q77.5631 844.542 77.5631 848.489 L77.5631 853.168 L72.6615 853.168 L72.6615 849.73 Q72.6615 847.311 71.5157 845.975 Q70.3699 844.638 66.1048 843.015 L63.4312 841.964 L28.3562 856.383 L28.3562 850.176 L56.238 839.036 L28.3562 827.896 L28.3562 821.689 L67.3143 837.349 Z" fill="#000000" fill-rule="nonzero" fill-opacity="1" /><path clip-path="url(#clip100)" d="M14.5426 778.816 Q21.8632 783.081 29.0246 785.15 Q36.186 787.219 43.5384 787.219 Q50.8908 787.219 58.1159 785.15 Q65.3091 783.05 72.5979 778.816 L72.5979 783.909 Q65.1182 788.683 57.8931 791.07 Q50.668 793.426 43.5384 793.426 Q36.4406 793.426 29.2474 791.07 Q22.0542 788.715 14.5426 783.909 L14.5426 778.816 Z" fill="#000000" fill-rule="nonzero" fill-opacity="1" /><path clip-path="url(#clip100)" d="M35.1993 739.699 Q31.2526 737.503 29.3747 734.447 Q27.4968 731.392 27.4968 727.254 Q27.4968 721.684 31.4117 718.66 Q35.2948 715.637 42.4881 715.637 L64.0042 715.637 L64.0042 721.525 L42.679 721.525 Q37.5546 721.525 35.072 723.339 Q32.5894 725.153 32.5894 728.877 Q32.5894 733.429 35.6131 736.071 Q38.6368 738.712 43.8567 738.712 L64.0042 738.712 L64.0042 744.601 L42.679 744.601 Q37.5228 744.601 35.072 746.415 Q32.5894 748.229 32.5894 752.017 Q32.5894 756.505 35.6449 759.146 Q38.6686 761.788 43.8567 761.788 L64.0042 761.788 L64.0042 767.676 L28.3562 767.676 L28.3562 761.788 L33.8944 761.788 Q30.616 759.783 29.0564 756.982 Q27.4968 754.181 27.4968 750.33 Q27.4968 746.447 29.4702 743.741 Q31.4436 741.004 35.1993 739.699 Z" fill="#000000" fill-rule="nonzero" fill-opacity="1" /><path clip-path="url(#clip100)" d="M14.5426 704.879 L14.5426 699.786 Q22.0542 695.012 29.2474 692.657 Q36.4406 690.269 43.5384 690.269 Q50.668 690.269 57.8931 692.657 Q65.1182 695.012 72.5979 699.786 L72.5979 704.879 Q65.3091 700.646 58.1159 698.577 Q50.8908 696.476 43.5384 696.476 Q36.186 696.476 29.0246 698.577 Q21.8632 700.646 14.5426 704.879 Z" fill="#000000" fill-rule="nonzero" fill-opacity="1" /><path clip-path="url(#clip100)" d="M557.076 12.096 L595.317 12.096 L595.317 18.9825 L565.259 18.9825 L565.259 36.8875 L594.061 36.8875 L594.061 43.7741 L565.259 43.7741 L565.259 65.6895 L596.046 65.6895 L596.046 72.576 L557.076 72.576 L557.076 12.096 Z" fill="#000000" fill-rule="nonzero" fill-opacity="1" /><path clip-path="url(#clip100)" d="M609.171 9.54393 L616.624 9.54393 L616.624 72.576 L609.171 72.576 L609.171 9.54393 Z" fill="#000000" fill-rule="nonzero" fill-opacity="1" /><path clip-path="url(#clip100)" d="M671.028 48.0275 L671.028 51.6733 L636.757 51.6733 Q637.243 59.3701 641.375 63.421 Q645.548 67.4314 652.961 67.4314 Q657.255 67.4314 661.265 66.3781 Q665.316 65.3249 669.286 63.2184 L669.286 70.267 Q665.276 71.9684 661.063 72.8596 Q656.85 73.7508 652.515 73.7508 Q641.659 73.7508 635.299 67.4314 Q628.98 61.1119 628.98 50.3365 Q628.98 39.1965 634.975 32.6746 Q641.011 26.1121 651.219 26.1121 Q660.374 26.1121 665.681 32.0264 Q671.028 37.9003 671.028 48.0275 M663.574 45.84 Q663.493 39.7232 660.131 36.0774 Q656.809 32.4315 651.3 32.4315 Q645.062 32.4315 641.294 35.9558 Q637.567 39.4801 637 45.8805 L663.574 45.84 Z" fill="#000000" fill-rule="nonzero" fill-opacity="1" /><path clip-path="url(#clip100)" d="M715.912 28.9478 L715.912 35.9153 Q712.752 34.1734 709.552 33.3227 Q706.392 32.4315 703.152 32.4315 Q695.9 32.4315 691.89 37.0496 Q687.88 41.6271 687.88 49.9314 Q687.88 58.2358 691.89 62.8538 Q695.9 67.4314 703.152 67.4314 Q706.392 67.4314 709.552 66.5807 Q712.752 65.6895 715.912 63.9476 L715.912 70.8341 Q712.793 72.2924 709.43 73.0216 Q706.109 73.7508 702.341 73.7508 Q692.093 73.7508 686.057 67.3098 Q680.021 60.8689 680.021 49.9314 Q680.021 38.832 686.097 32.472 Q692.214 26.1121 702.828 26.1121 Q706.271 26.1121 709.552 26.8413 Q712.833 27.5299 715.912 28.9478 Z" fill="#000000" fill-rule="nonzero" fill-opacity="1" /><path clip-path="url(#clip100)" d="M736.247 14.324 L736.247 27.2059 L751.6 27.2059 L751.6 32.9987 L736.247 32.9987 L736.247 57.6282 Q736.247 63.1779 737.746 64.7578 Q739.286 66.3376 743.944 66.3376 L751.6 66.3376 L751.6 72.576 L743.944 72.576 Q735.316 72.576 732.035 69.3758 Q728.753 66.1351 728.753 57.6282 L728.753 32.9987 L723.285 32.9987 L723.285 27.2059 L728.753 27.2059 L728.753 14.324 L736.247 14.324 Z" fill="#000000" fill-rule="nonzero" fill-opacity="1" /><path clip-path="url(#clip100)" d="M787.694 34.1734 Q786.438 33.4443 784.939 33.1202 Q783.481 32.7556 781.699 32.7556 Q775.379 32.7556 771.976 36.8875 Q768.614 40.9789 768.614 48.6757 L768.614 72.576 L761.12 72.576 L761.12 27.2059 L768.614 27.2059 L768.614 34.2544 Q770.964 30.1225 774.731 28.1376 Q778.498 26.1121 783.886 26.1121 Q784.656 26.1121 785.587 26.2337 Q786.519 26.3147 787.653 26.5172 L787.694 34.1734 Z" fill="#000000" fill-rule="nonzero" fill-opacity="1" /><path clip-path="url(#clip100)" d="M795.512 27.2059 L802.966 27.2059 L802.966 72.576 L795.512 72.576 L795.512 27.2059 M795.512 9.54393 L802.966 9.54393 L802.966 18.9825 L795.512 18.9825 L795.512 9.54393 Z" fill="#000000" fill-rule="nonzero" fill-opacity="1" /><path clip-path="url(#clip100)" d="M851.212 28.9478 L851.212 35.9153 Q848.052 34.1734 844.852 33.3227 Q841.693 32.4315 838.452 32.4315 Q831.201 32.4315 827.19 37.0496 Q823.18 41.6271 823.18 49.9314 Q823.18 58.2358 827.19 62.8538 Q831.201 67.4314 838.452 67.4314 Q841.693 67.4314 844.852 66.5807 Q848.052 65.6895 851.212 63.9476 L851.212 70.8341 Q848.093 72.2924 844.731 73.0216 Q841.409 73.7508 837.642 73.7508 Q827.393 73.7508 821.357 67.3098 Q815.321 60.8689 815.321 49.9314 Q815.321 38.832 821.397 32.472 Q827.514 26.1121 838.128 26.1121 Q841.571 26.1121 844.852 26.8413 Q848.133 27.5299 851.212 28.9478 Z" fill="#000000" fill-rule="nonzero" fill-opacity="1" /><path clip-path="url(#clip100)" d="M936.16 16.7545 L936.16 25.383 Q932.028 21.5346 927.329 19.6307 Q922.67 17.7268 917.404 17.7268 Q907.034 17.7268 901.524 24.0867 Q896.015 30.4061 896.015 42.3968 Q896.015 54.3469 901.524 60.7069 Q907.034 67.0263 917.404 67.0263 Q922.67 67.0263 927.329 65.1223 Q932.028 63.2184 936.16 59.3701 L936.16 67.9175 Q931.866 70.8341 927.045 72.2924 Q922.265 73.7508 916.918 73.7508 Q903.185 73.7508 895.286 65.3654 Q887.387 56.9395 887.387 42.3968 Q887.387 27.8135 895.286 19.4281 Q903.185 11.0023 916.918 11.0023 Q922.346 11.0023 927.126 12.4606 Q931.947 13.8784 936.16 16.7545 Z" fill="#000000" fill-rule="nonzero" fill-opacity="1" /><path clip-path="url(#clip100)" d="M986.188 45.1919 L986.188 72.576 L978.735 72.576 L978.735 45.4349 Q978.735 38.994 976.223 35.7938 Q973.711 32.5936 968.688 32.5936 Q962.653 32.5936 959.169 36.4419 Q955.685 40.2903 955.685 46.9338 L955.685 72.576 L948.191 72.576 L948.191 9.54393 L955.685 9.54393 L955.685 34.2544 Q958.359 30.163 961.964 28.1376 Q965.61 26.1121 970.349 26.1121 Q978.167 26.1121 982.178 30.9732 Q986.188 35.7938 986.188 45.1919 Z" fill="#000000" fill-rule="nonzero" fill-opacity="1" /><path clip-path="url(#clip100)" d="M1021.67 49.7694 Q1012.64 49.7694 1009.16 51.8354 Q1005.67 53.9013 1005.67 58.8839 Q1005.67 62.8538 1008.27 65.2034 Q1010.9 67.5124 1015.4 67.5124 Q1021.59 67.5124 1025.32 63.1374 Q1029.09 58.7219 1029.09 51.4303 L1029.09 49.7694 L1021.67 49.7694 M1036.54 46.6907 L1036.54 72.576 L1029.09 72.576 L1029.09 65.6895 Q1026.54 69.8214 1022.73 71.8063 Q1018.92 73.7508 1013.41 73.7508 Q1006.44 73.7508 1002.31 69.8619 Q998.219 65.9325 998.219 59.3701 Q998.219 51.7138 1003.32 47.825 Q1008.47 43.9361 1018.64 43.9361 L1029.09 43.9361 L1029.09 43.2069 Q1029.09 38.0623 1025.68 35.2672 Q1022.32 32.4315 1016.21 32.4315 Q1012.32 32.4315 1008.63 33.3632 Q1004.94 34.295 1001.54 36.1584 L1001.54 29.2718 Q1005.63 27.692 1009.48 26.9223 Q1013.33 26.1121 1016.98 26.1121 Q1026.82 26.1121 1031.68 31.2163 Q1036.54 36.3204 1036.54 46.6907 Z" fill="#000000" fill-rule="nonzero" fill-opacity="1" /><path clip-path="url(#clip100)" d="M1078.18 34.1734 Q1076.93 33.4443 1075.43 33.1202 Q1073.97 32.7556 1072.19 32.7556 Q1065.87 32.7556 1062.47 36.8875 Q1059.1 40.9789 1059.1 48.6757 L1059.1 72.576 L1051.61 72.576 L1051.61 27.2059 L1059.1 27.2059 L1059.1 34.2544 Q1061.45 30.1225 1065.22 28.1376 Q1068.99 26.1121 1074.38 26.1121 Q1075.15 26.1121 1076.08 26.2337 Q1077.01 26.3147 1078.14 26.5172 L1078.18 34.1734 Z" fill="#000000" fill-rule="nonzero" fill-opacity="1" /><path clip-path="url(#clip100)" d="M1114.4 49.3643 Q1114.4 41.2625 1111.04 36.8065 Q1107.72 32.3505 1101.68 32.3505 Q1095.68 32.3505 1092.32 36.8065 Q1089 41.2625 1089 49.3643 Q1089 57.4256 1092.32 61.8816 Q1095.68 66.3376 1101.68 66.3376 Q1107.72 66.3376 1111.04 61.8816 Q1114.4 57.4256 1114.4 49.3643 M1121.85 66.9452 Q1121.85 78.5308 1116.71 84.1616 Q1111.56 89.8329 1100.95 89.8329 Q1097.02 89.8329 1093.54 89.2252 Q1090.05 88.6581 1086.77 87.4428 L1086.77 80.1917 Q1090.05 81.9741 1093.25 82.8248 Q1096.45 83.6755 1099.78 83.6755 Q1107.11 83.6755 1110.75 79.8271 Q1114.4 76.0193 1114.4 68.282 L1114.4 64.5957 Q1112.09 68.6061 1108.49 70.5911 Q1104.88 72.576 1099.86 72.576 Q1091.51 72.576 1086.41 66.2161 Q1081.3 59.8562 1081.3 49.3643 Q1081.3 38.832 1086.41 32.472 Q1091.51 26.1121 1099.86 26.1121 Q1104.88 26.1121 1108.49 28.0971 Q1112.09 30.082 1114.4 34.0924 L1114.4 27.2059 L1121.85 27.2059 L1121.85 66.9452 Z" fill="#000000" fill-rule="nonzero" fill-opacity="1" /><path clip-path="url(#clip100)" d="M1176.01 48.0275 L1176.01 51.6733 L1141.74 51.6733 Q1142.23 59.3701 1146.36 63.421 Q1150.53 67.4314 1157.95 67.4314 Q1162.24 67.4314 1166.25 66.3781 Q1170.3 65.3249 1174.27 63.2184 L1174.27 70.267 Q1170.26 71.9684 1166.05 72.8596 Q1161.84 73.7508 1157.5 73.7508 Q1146.64 73.7508 1140.28 67.4314 Q1133.97 61.1119 1133.97 50.3365 Q1133.97 39.1965 1139.96 32.6746 Q1146 26.1121 1156.2 26.1121 Q1165.36 26.1121 1170.67 32.0264 Q1176.01 37.9003 1176.01 48.0275 M1168.56 45.84 Q1168.48 39.7232 1165.12 36.0774 Q1161.79 32.4315 1156.29 32.4315 Q1150.05 32.4315 1146.28 35.9558 Q1142.55 39.4801 1141.99 45.8805 L1168.56 45.84 Z" fill="#000000" fill-rule="nonzero" fill-opacity="1" /><path clip-path="url(#clip100)" d="M1217.17 28.5427 L1217.17 35.5912 Q1214.01 33.9709 1210.61 33.1607 Q1207.21 32.3505 1203.56 32.3505 Q1198.01 32.3505 1195.21 34.0519 Q1192.46 35.7533 1192.46 39.156 Q1192.46 41.7486 1194.45 43.2475 Q1196.43 44.7058 1202.43 46.0426 L1204.98 46.6097 Q1212.92 48.3111 1216.24 51.4303 Q1219.6 54.509 1219.6 60.0587 Q1219.6 66.3781 1214.58 70.0644 Q1209.6 73.7508 1200.85 73.7508 Q1197.2 73.7508 1193.23 73.0216 Q1189.3 72.3329 1184.93 70.9151 L1184.93 63.2184 Q1189.06 65.3654 1193.07 66.4591 Q1197.08 67.5124 1201.01 67.5124 Q1206.27 67.5124 1209.11 65.73 Q1211.95 63.9071 1211.95 60.6258 Q1211.95 57.5877 1209.88 55.9673 Q1207.85 54.3469 1200.93 52.8481 L1198.33 52.2405 Q1191.41 50.7821 1188.33 47.7845 Q1185.25 44.7463 1185.25 39.4801 Q1185.25 33.0797 1189.79 29.5959 Q1194.32 26.1121 1202.67 26.1121 Q1206.8 26.1121 1210.45 26.7198 Q1214.09 27.3274 1217.17 28.5427 Z" fill="#000000" fill-rule="nonzero" fill-opacity="1" /><path clip-path="url(#clip100)" d="M1254.07 46.5287 L1275.91 46.5287 L1275.91 53.1722 L1254.07 53.1722 L1254.07 46.5287 Z" fill="#000000" fill-rule="nonzero" fill-opacity="1" /><path clip-path="url(#clip100)" d="M1314.47 12.096 L1325.49 12.096 L1352.31 62.6918 L1352.31 12.096 L1360.25 12.096 L1360.25 72.576 L1349.23 72.576 L1322.41 21.9802 L1322.41 72.576 L1314.47 72.576 L1314.47 12.096 Z" fill="#000000" fill-rule="nonzero" fill-opacity="1" /><path clip-path="url(#clip100)" d="M1377.18 34.9026 L1429.11 34.9026 L1429.11 41.7081 L1377.18 41.7081 L1377.18 34.9026 M1377.18 51.4303 L1429.11 51.4303 L1429.11 58.3168 L1377.18 58.3168 L1377.18 51.4303 Z" fill="#000000" fill-rule="nonzero" fill-opacity="1" /><path clip-path="url(#clip100)" d="M1448.19 65.6895 L1461.56 65.6895 L1461.56 19.5497 L1447.02 22.4663 L1447.02 15.0127 L1461.48 12.096 L1469.66 12.096 L1469.66 65.6895 L1483.03 65.6895 L1483.03 72.576 L1448.19 72.576 L1448.19 65.6895 Z" fill="#000000" fill-rule="nonzero" fill-opacity="1" /><path clip-path="url(#clip100)" d="M1506.61 65.6895 L1535.17 65.6895 L1535.17 72.576 L1496.76 72.576 L1496.76 65.6895 Q1501.42 60.8689 1509.44 52.7671 Q1517.5 44.6248 1519.57 42.2752 Q1523.5 37.8598 1525.04 34.8216 Q1526.62 31.7429 1526.62 28.7857 Q1526.62 23.9651 1523.22 20.927 Q1519.85 17.8888 1514.43 17.8888 Q1510.58 17.8888 1506.28 19.2256 Q1502.03 20.5624 1497.17 23.2765 L1497.17 15.0127 Q1502.11 13.0277 1506.41 12.015 Q1510.7 11.0023 1514.26 11.0023 Q1523.66 11.0023 1529.25 15.7013 Q1534.84 20.4004 1534.84 28.2591 Q1534.84 31.9859 1533.42 35.3482 Q1532.05 38.6699 1528.36 43.2069 Q1527.35 44.3817 1521.92 50.0125 Q1516.49 55.6027 1506.61 65.6895 Z" fill="#000000" fill-rule="nonzero" fill-opacity="1" /><path clip-path="url(#clip100)" d="M1595.57 9.62495 Q1590.14 18.942 1587.5 28.0566 Q1584.87 37.1711 1584.87 46.5287 Q1584.87 55.8863 1587.5 65.0818 Q1590.18 74.2369 1595.57 83.5134 L1589.08 83.5134 Q1583.01 73.9938 1579.97 64.7983 Q1576.97 55.6027 1576.97 46.5287 Q1576.97 37.4952 1579.97 28.3401 Q1582.97 19.1851 1589.08 9.62495 L1595.57 9.62495 Z" fill="#000000" fill-rule="nonzero" fill-opacity="1" /><path clip-path="url(#clip100)" d="M1646.61 14.0809 L1646.61 22.0612 Q1641.95 19.8332 1637.82 18.7395 Q1633.68 17.6457 1629.84 17.6457 Q1623.15 17.6457 1619.51 20.2383 Q1615.9 22.8309 1615.9 27.611 Q1615.9 31.6214 1618.29 33.6873 Q1620.72 35.7128 1627.45 36.9686 L1632.39 37.9813 Q1641.54 39.7232 1645.88 44.1387 Q1650.25 48.5136 1650.25 55.8863 Q1650.25 64.6767 1644.34 69.2137 Q1638.46 73.7508 1627.08 73.7508 Q1622.79 73.7508 1617.93 72.7785 Q1613.11 71.8063 1607.92 69.9024 L1607.92 61.4765 Q1612.9 64.2716 1617.68 65.6895 Q1622.46 67.1073 1627.08 67.1073 Q1634.09 67.1073 1637.9 64.3527 Q1641.71 61.598 1641.71 56.4939 Q1641.71 52.0379 1638.95 49.5264 Q1636.24 47.0148 1630 45.759 L1625.02 44.7868 Q1615.86 42.9639 1611.77 39.075 Q1607.68 35.1862 1607.68 28.2591 Q1607.68 20.2383 1613.31 15.6203 Q1618.98 11.0023 1628.9 11.0023 Q1633.16 11.0023 1637.57 11.7719 Q1641.99 12.5416 1646.61 14.0809 Z" fill="#000000" fill-rule="nonzero" fill-opacity="1" /><path clip-path="url(#clip100)" d="M1663.01 12.096 L1701.25 12.096 L1701.25 18.9825 L1671.2 18.9825 L1671.2 36.8875 L1700 36.8875 L1700 43.7741 L1671.2 43.7741 L1671.2 65.6895 L1701.98 65.6895 L1701.98 72.576 L1663.01 72.576 L1663.01 12.096 Z" fill="#000000" fill-rule="nonzero" fill-opacity="1" /><path clip-path="url(#clip100)" d="M1715.43 12.096 L1753.67 12.096 L1753.67 18.9825 L1723.61 18.9825 L1723.61 36.8875 L1752.42 36.8875 L1752.42 43.7741 L1723.61 43.7741 L1723.61 65.6895 L1754.4 65.6895 L1754.4 72.576 L1715.43 72.576 L1715.43 12.096 Z" fill="#000000" fill-rule="nonzero" fill-opacity="1" /><path clip-path="url(#clip100)" d="M1776.03 18.8205 L1776.03 65.8515 L1785.92 65.8515 Q1798.44 65.8515 1804.23 60.1802 Q1810.06 54.509 1810.06 42.2752 Q1810.06 30.1225 1804.23 24.4918 Q1798.44 18.8205 1785.92 18.8205 L1776.03 18.8205 M1767.85 12.096 L1784.66 12.096 Q1802.24 12.096 1810.47 19.4281 Q1818.69 26.7198 1818.69 42.2752 Q1818.69 57.9117 1810.43 65.2439 Q1802.16 72.576 1784.66 72.576 L1767.85 72.576 L1767.85 12.096 Z" fill="#000000" fill-rule="nonzero" fill-opacity="1" /><path clip-path="url(#clip100)" d="M1832.38 34.9026 L1884.31 34.9026 L1884.31 41.7081 L1832.38 41.7081 L1832.38 34.9026 M1832.38 51.4303 L1884.31 51.4303 L1884.31 58.3168 L1832.38 58.3168 L1832.38 51.4303 Z" fill="#000000" fill-rule="nonzero" fill-opacity="1" /><path clip-path="url(#clip100)" d="M1903.39 65.6895 L1916.76 65.6895 L1916.76 19.5497 L1902.22 22.4663 L1902.22 15.0127 L1916.68 12.096 L1924.86 12.096 L1924.86 65.6895 L1938.23 65.6895 L1938.23 72.576 L1903.39 72.576 L1903.39 65.6895 Z" fill="#000000" fill-rule="nonzero" fill-opacity="1" /><path clip-path="url(#clip100)" d="M1952.53 9.62495 L1959.01 9.62495 Q1965.09 19.1851 1968.09 28.3401 Q1971.13 37.4952 1971.13 46.5287 Q1971.13 55.6027 1968.09 64.7983 Q1965.09 73.9938 1959.01 83.5134 L1952.53 83.5134 Q1957.92 74.2369 1960.55 65.0818 Q1963.23 55.8863 1963.23 46.5287 Q1963.23 37.1711 1960.55 28.0566 Q1957.92 18.942 1952.53 9.62495 Z" fill="#000000" fill-rule="nonzero" fill-opacity="1" /><circle clip-path="url(#clip102)" cx="1808.44" cy="773.313" r="18" fill="#ff0000" fill-rule="evenodd" fill-opacity="1" stroke="#000000" stroke-opacity="1" stroke-width="0"/>
<circle clip-path="url(#clip102)" cx="1735.51" cy="691.664" r="18" fill="#ff0000" fill-rule="evenodd" fill-opacity="1" stroke="#000000" stroke-opacity="1" stroke-width="0"/>
<circle clip-path="url(#clip102)" cx="1536.28" cy="631.893" r="18" fill="#ff0000" fill-rule="evenodd" fill-opacity="1" stroke="#000000" stroke-opacity="1" stroke-width="0"/>
<circle clip-path="url(#clip102)" cx="1264.11" cy="610.015" r="18" fill="#ff0000" fill-rule="evenodd" fill-opacity="1" stroke="#000000" stroke-opacity="1" stroke-width="0"/>
<circle clip-path="url(#clip102)" cx="991.95" cy="631.893" r="18" fill="#ff0000" fill-rule="evenodd" fill-opacity="1" stroke="#000000" stroke-opacity="1" stroke-width="0"/>
<circle clip-path="url(#clip102)" cx="792.712" cy="691.664" r="18" fill="#ff0000" fill-rule="evenodd" fill-opacity="1" stroke="#000000" stroke-opacity="1" stroke-width="0"/>
<circle clip-path="url(#clip102)" cx="719.786" cy="773.313" r="18" fill="#ff0000" fill-rule="evenodd" fill-opacity="1" stroke="#000000" stroke-opacity="1" stroke-width="0"/>
<circle clip-path="url(#clip102)" cx="792.712" cy="854.962" r="18" fill="#ff0000" fill-rule="evenodd" fill-opacity="1" stroke="#000000" stroke-opacity="1" stroke-width="0"/>
<circle clip-path="url(#clip102)" cx="991.95" cy="914.734" r="18" fill="#ff0000" fill-rule="evenodd" fill-opacity="1" stroke="#000000" stroke-opacity="1" stroke-width="0"/>
<circle clip-path="url(#clip102)" cx="1264.11" cy="936.611" r="18" fill="#ff0000" fill-rule="evenodd" fill-opacity="1" stroke="#000000" stroke-opacity="1" stroke-width="0"/>
<circle clip-path="url(#clip102)" cx="1536.28" cy="914.734" r="18" fill="#ff0000" fill-rule="evenodd" fill-opacity="1" stroke="#000000" stroke-opacity="1" stroke-width="0"/>
<circle clip-path="url(#clip102)" cx="1735.51" cy="854.962" r="18" fill="#ff0000" fill-rule="evenodd" fill-opacity="1" stroke="#000000" stroke-opacity="1" stroke-width="0"/>
</svg>
